<svg width="64" height="64" viewBox="0 0 64 64" fill="none" xmlns="http://www.w3.org/2000/svg">
<g filter="url(#filter0_ii_626_2)">
<path fill-rule="evenodd" clip-rule="evenodd" d="M34.7152 31.3603C33.5415 29.0812 30.4589 29.0812 29.2851 31.3603L27.398 35.0246C25.3799 38.943 20.1002 39.0037 18.0028 35.1326L16.8808 33.0619C16.1356 31.6866 14.2699 31.6773 13.5125 33.045L13.2014 33.6068C12.7201 34.4759 11.6665 34.7661 10.848 34.2551C10.0296 33.7441 9.75622 32.6253 10.2375 31.7562L10.5486 31.1944C12.6426 27.4129 17.8008 27.4389 19.8611 31.2412L20.983 33.3119C21.7417 34.7121 23.6513 34.6901 24.3813 33.2728L26.2684 29.6085C28.7464 24.7971 35.2541 24.7972 37.7319 29.6086L39.6188 33.2726C40.3487 34.6899 42.2584 34.7119 43.0171 33.3117L44.1389 31.2412C46.1992 27.4389 51.3574 27.4129 53.4514 31.1944L53.7625 31.7562C54.2438 32.6253 53.9704 33.7441 53.152 34.2551C52.3335 34.7661 51.2799 34.4759 50.7986 33.6068L50.4875 33.045C49.7301 31.6773 47.8644 31.6866 47.1192 33.0619L45.9973 35.1324C43.8998 39.0036 38.6201 38.9428 36.6021 35.0243L34.7152 31.3603Z" fill="#FF00FF"/>
<path fill-rule="evenodd" clip-rule="evenodd" d="M34.7152 31.3603C33.5415 29.0812 30.4589 29.0812 29.2851 31.3603L27.398 35.0246C25.3799 38.943 20.1002 39.0037 18.0028 35.1326L16.8808 33.0619C16.1356 31.6866 14.2699 31.6773 13.5125 33.045L13.2014 33.6068C12.7201 34.4759 11.6665 34.7661 10.848 34.2551C10.0296 33.7441 9.75622 32.6253 10.2375 31.7562L10.5486 31.1944C12.6426 27.4129 17.8008 27.4389 19.8611 31.2412L20.983 33.3119C21.7417 34.7121 23.6513 34.6901 24.3813 33.2728L26.2684 29.6085C28.7464 24.7971 35.2541 24.7972 37.7319 29.6086L39.6188 33.2726C40.3487 34.6899 42.2584 34.7119 43.0171 33.3117L44.1389 31.2412C46.1992 27.4389 51.3574 27.4129 53.4514 31.1944L53.7625 31.7562C54.2438 32.6253 53.9704 33.7441 53.152 34.2551C52.3335 34.7661 51.2799 34.4759 50.7986 33.6068L50.4875 33.045C49.7301 31.6773 47.8644 31.6866 47.1192 33.0619L45.9973 35.1324C43.8998 39.0036 38.6201 38.9428 36.6021 35.0243L34.7152 31.3603Z" fill="url(#paint0_linear_626_2)"/>
<path fill-rule="evenodd" clip-rule="evenodd" d="M34.7152 31.3603C33.5415 29.0812 30.4589 29.0812 29.2851 31.3603L27.398 35.0246C25.3799 38.943 20.1002 39.0037 18.0028 35.1326L16.8808 33.0619C16.1356 31.6866 14.2699 31.6773 13.5125 33.045L13.2014 33.6068C12.7201 34.4759 11.6665 34.7661 10.848 34.2551C10.0296 33.7441 9.75622 32.6253 10.2375 31.7562L10.5486 31.1944C12.6426 27.4129 17.8008 27.4389 19.8611 31.2412L20.983 33.3119C21.7417 34.7121 23.6513 34.6901 24.3813 33.2728L26.2684 29.6085C28.7464 24.7971 35.2541 24.7972 37.7319 29.6086L39.6188 33.2726C40.3487 34.6899 42.2584 34.7119 43.0171 33.3117L44.1389 31.2412C46.1992 27.4389 51.3574 27.4129 53.4514 31.1944L53.7625 31.7562C54.2438 32.6253 53.9704 33.7441 53.152 34.2551C52.3335 34.7661 51.2799 34.4759 50.7986 33.6068L50.4875 33.045C49.7301 31.6773 47.8644 31.6866 47.1192 33.0619L45.9973 35.1324C43.8998 39.0036 38.6201 38.9428 36.6021 35.0243L34.7152 31.3603Z" fill="white" fill-opacity="0.3"/>
</g>
<defs>
<filter id="filter0_ii_626_2" x="10" y="17.6931" width="44" height="25.8448" filterUnits="userSpaceOnUse" color-interpolation-filters="sRGB">
<feFlood flood-opacity="0" result="BackgroundImageFix"/>
<feBlend mode="normal" in="SourceGraphic" in2="BackgroundImageFix" result="shape"/>
<feColorMatrix in="SourceAlpha" type="matrix" values="0 0 0 0 0 0 0 0 0 0 0 0 0 0 0 0 0 0 127 0" result="hardAlpha"/>
<feOffset dy="-8.30688"/>
<feGaussianBlur stdDeviation="8.33531"/>
<feComposite in2="hardAlpha" operator="arithmetic" k2="-1" k3="1"/>
<feColorMatrix type="matrix" values="0 0 0 0 0 0 0 0 0 0 0 0 0 0 0 0 0 0 0.83 0"/>
<feBlend mode="overlay" in2="shape" result="effect1_innerShadow_626_2"/>
<feColorMatrix in="SourceAlpha" type="matrix" values="0 0 0 0 0 0 0 0 0 0 0 0 0 0 0 0 0 0 127 0" result="hardAlpha"/>
<feOffset dy="5.53792"/>
<feGaussianBlur stdDeviation="10.4191"/>
<feComposite in2="hardAlpha" operator="arithmetic" k2="-1" k3="1"/>
<feColorMatrix type="matrix" values="0 0 0 0 1 0 0 0 0 1 0 0 0 0 1 0 0 0 0.53 0"/>
<feBlend mode="normal" in2="effect1_innerShadow_626_2" result="effect2_innerShadow_626_2"/>
</filter>
<linearGradient id="paint0_linear_626_2" x1="11.7194" y1="31.2895" x2="51.8248" y2="35.6157" gradientUnits="userSpaceOnUse">
<stop stop-color="#E9C100"/>
<stop offset="0.111111" stop-color="#FB1B33"/>
<stop offset="0.222222" stop-color="#CB0E9D"/>
<stop offset="0.226666" stop-color="#C6119F"/>
<stop offset="0.286666" stop-color="#8B40BE"/>
<stop offset="0.33" stop-color="#6062D4"/>
<stop offset="0.444444" stop-color="#37B9E3"/>
<stop offset="0.55" stop-color="#00A4E3"/>
<stop offset="0.66" stop-color="#15CFD9"/>
<stop offset="0.77" stop-color="#80C3AD"/>
<stop offset="0.88" stop-color="#EE9700"/>
<stop offset="1" stop-color="#F67900"/>
</linearGradient>
</defs>
</svg>
